<?xml version="1.0" encoding="UTF-8"?>
<svg width="56px" height="86px" viewBox="0 0 56 86" version="1.1" xmlns="http://www.w3.org/2000/svg" xmlns:xlink="http://www.w3.org/1999/xlink">
  <title>Logo</title>
  <g id="Page-1" stroke="none" stroke-width="1" fill="none" fill-rule="evenodd">
    <g id="Home" transform="translate(-484.000000, -25.000000)">
      <g id="Logo" transform="translate(484.000000, 25.000000)" fill="#D9D9D9" fill-rule="nonzero">
        <path d="M36.9686245,0.577434178 C37.7846215,-0.320967372 38.5959017,-0.160200779 38.8553227,0.98407909 C39.4260489,3.82113661 38.3836482,7.27288994 34.3744144,12.5781875 C28.5916844,20.2571565 15.6395011,36.2628894 6.11167506,51.1243424 C5.54094884,52.022744 4.97022263,52.3490056 3.82877021,51.5309873 C0.814769795,49.2424276 -0.487051979,46.3060731 0.163858908,40.5894021 C1.5505821,27.9313972 5.62113352,8.90892644 8.55494926,1.06446239 C9.02662381,-0.160200779 9.61150026,-0.320967372 10.3473126,0.591619465 C12.2340108,2.79506748 12.545316,5.79289159 11.1585928,12.1053446 C9.45113091,19.9450802 6.76258594,31.4588053 4.72495186,43.9513153 C12.5311658,30.7873684 29.7425703,8.17129149 36.9686245,0.577434178 Z" id="Path"></path>
        <path d="M47.6219757,68.7178927 C49.6536542,74.1544155 44.4448266,80.239374 41.0225561,82.6733574 C35.24335,86.8130088 28.4035229,86.733129 24.0054811,84.3790254 C20.3428032,82.4290193 17.1703679,77.401293 17.0053824,70.7524773 C16.6801253,53.5454363 31.1705653,38.8616561 40.2871922,35.3704405 C44.685234,33.6647726 48.673169,33.3405547 51.2799398,35.6147786 C53.0712108,37.1559882 54.9426177,39.5100918 55.5931319,41.5352788 C56.3237819,43.8846836 56.064519,46.1636063 54.8624819,48.6774695 C53.6604447,51.1913327 52.5055463,54.3583304 51.6051969,56.712434 C51.3600756,57.3608698 50.7896972,57.849546 49.8139258,57.182315 C47.9283774,55.9606245 46.6367767,53.4232673 47.8576693,49.3916886 C49.1634116,45.0875789 52.1001534,40.4639502 50.2146049,38.5139442 C47.9378051,36.0799608 35.5638933,42.6535955 28.2338236,54.7436328 C21.0734532,66.5940308 21.8842391,78.6041883 25.876888,81.8510658 C31.0857156,86.0799945 39.7120999,80.6340741 45.9014128,68.539338 C46.3162334,67.6606606 47.2118689,67.6606606 47.6219757,68.7178927 Z" id="Path"></path>
      </g>
    </g>
  </g>
</svg>
